<mxfile host="app.diagrams.net" agent="Mozilla/5.0 (Macintosh; Intel Mac OS X 10_15_7) AppleWebKit/537.36 (KHTML, like Gecko) Chrome/130.0.0.0 Safari/537.36 QuarkPC/4.3.7.490" version="28.2.0">
  <diagram name="第 1 页" id="ti-UKei0djBskBCIce9L">
    <mxGraphModel dx="1186" dy="653" grid="1" gridSize="10" guides="1" tooltips="1" connect="1" arrows="1" fold="1" page="1" pageScale="1" pageWidth="827" pageHeight="1169" math="0" shadow="0">
      <root>
        <mxCell id="0" />
        <mxCell id="1" parent="0" />
        <mxCell id="6visbxMU3rmbQB7sgcHr-1" value="应用层" style="rounded=1;whiteSpace=wrap;html=1;" vertex="1" parent="1">
          <mxGeometry x="330" y="150" width="120" height="60" as="geometry" />
        </mxCell>
        <mxCell id="6visbxMU3rmbQB7sgcHr-2" value="传输层" style="rounded=1;whiteSpace=wrap;html=1;" vertex="1" parent="1">
          <mxGeometry x="330" y="260" width="120" height="60" as="geometry" />
        </mxCell>
        <mxCell id="6visbxMU3rmbQB7sgcHr-3" value="网络层" style="rounded=1;whiteSpace=wrap;html=1;" vertex="1" parent="1">
          <mxGeometry x="330" y="370" width="120" height="60" as="geometry" />
        </mxCell>
        <mxCell id="6visbxMU3rmbQB7sgcHr-4" value="网络接口层" style="rounded=1;whiteSpace=wrap;html=1;" vertex="1" parent="1">
          <mxGeometry x="330" y="490" width="120" height="60" as="geometry" />
        </mxCell>
        <mxCell id="6visbxMU3rmbQB7sgcHr-5" value="面向用户的服务：http" style="text;html=1;align=center;verticalAlign=middle;whiteSpace=wrap;rounded=0;" vertex="1" parent="1">
          <mxGeometry x="520" y="165" width="160" height="30" as="geometry" />
        </mxCell>
        <mxCell id="6visbxMU3rmbQB7sgcHr-6" value="端到端通信：tcp、udp" style="text;html=1;align=center;verticalAlign=middle;whiteSpace=wrap;rounded=0;" vertex="1" parent="1">
          <mxGeometry x="520" y="275" width="150" height="30" as="geometry" />
        </mxCell>
        <mxCell id="6visbxMU3rmbQB7sgcHr-7" value="寻址：ip" style="text;html=1;align=center;verticalAlign=middle;whiteSpace=wrap;rounded=0;" vertex="1" parent="1">
          <mxGeometry x="525" y="380" width="150" height="30" as="geometry" />
        </mxCell>
        <mxCell id="6visbxMU3rmbQB7sgcHr-8" value="传输数据帧：WIFI" style="text;html=1;align=center;verticalAlign=middle;whiteSpace=wrap;rounded=0;" vertex="1" parent="1">
          <mxGeometry x="525" y="505" width="150" height="30" as="geometry" />
        </mxCell>
      </root>
    </mxGraphModel>
  </diagram>
</mxfile>
